<?xml version="1.0" encoding="UTF-8"?>
<!-- Created with Inkscape (http://www.inkscape.org/) -->
<svg width="18" height="18" version="1.1" viewBox="0 0 4.7625 4.7625" xmlns="http://www.w3.org/2000/svg">
 <g fill="#fefefe">
  <ellipse cx="2.3812" cy="2.3812" rx="1.5232" ry="1.5228" fill-rule="evenodd" stop-color="#000000" style="paint-order:markers stroke fill"/>
  <g stroke="#fefefe" stroke-linecap="round" stroke-width=".26458px">
   <path d="m2.3812 0.22765v0.29128"/>
   <path d="m3.4581 0.51618c-0.15197 0.26322-0.14564 0.25226-0.14564 0.25226"/>
   <path d="m4.2463 1.3044c-0.26322 0.15197-0.25226 0.14564-0.25226 0.14564"/>
   <path d="m4.5349 2.3812h-0.29128"/>
   <path d="m4.2463 3.4581c-0.26322-0.15197-0.25226-0.14564-0.25226-0.14564"/>
   <path d="m3.4581 4.2463c-0.15197-0.26322-0.14564-0.25226-0.14564-0.25226"/>
   <path d="m2.3812 4.5349v-0.29128"/>
   <path d="m1.3044 4.2463c0.15197-0.26322 0.14564-0.25226 0.14564-0.25226"/>
   <path d="m0.51618 3.4581c0.26322-0.15197 0.25226-0.14564 0.25226-0.14564"/>
   <path d="m0.22765 2.3812h0.29128"/>
   <path d="m0.51618 1.3044c0.26322 0.15197 0.25226 0.14564 0.25226 0.14564"/>
   <path d="m1.3044 0.51618c0.15197 0.26322 0.14564 0.25226 0.14564 0.25226"/>
   <path d="m1.3044 0.51618c0.15197 0.26322 0.14564 0.25226 0.14564 0.25226"/>
  </g>
 </g>
</svg>
