<?xml version="1.0" encoding="UTF-8"?>
<!-- Generator: Adobe Illustrator 19.0.0, SVG Export Plug-In . SVG Version: 6.00 Build 0)  -->
<svg width="512" height="488.49" version="1.1" viewBox="0 0 512 488.49" xml:space="preserve" xmlns="http://www.w3.org/2000/svg">
<rect width="512" height="488.49" fill="#fff" fill-rule="evenodd" stop-color="#000000" stroke-width="2" style="paint-order:markers stroke fill"/><rect y="300.41" width="512" height="188.08" fill="#c8da2e"/>
<rect y="300.41" width="512" height="57.469" fill="#b5d336"/>
<rect y="357.88" width="512" height="52.245" fill="#9fcc3d"/>
<path d="m88.816 13.062c31.765 0 57.469 25.704 57.469 57.469s-25.704 57.469-57.469 57.469-57.469-25.704-57.469-57.469 25.704-57.469 57.469-57.469z" fill="#ffd248"/>
<path d="m444.08 39.185c11.494 0 20.898 9.404 20.898 20.898s-9.404 20.898-20.898 20.898h-94.041c-11.494 0-20.898-9.404-20.898-20.898 0-3.866 1.149-7.314 2.926-10.449h-55.171c-11.494 0-20.898-9.404-20.898-20.898s9.404-20.898 20.898-20.898h135.84c11.494 0 20.898 9.404 20.898 20.898 0 3.866-1.149 7.314-2.926 10.449z" fill="#e6e6e6"/>
<polygon transform="translate(0,-11.754)" points="485.88 312.48 391.84 312.48 391.84 312.16 272.61 196.28 318.69 150.2 485.88 312.16" fill="#998675"/>
<polygon transform="translate(0,-11.754)" points="391.84 312.48 20.898 312.48 20.898 312.16 130.61 202.45 203.76 129.31 272.61 196.28 391.84 312.16" fill="#c8b186"/>
<rect y="350.04" width="412.73" height="15.673"/>
<rect x="99.265" y="402.29" width="412.73" height="15.673"/>
<path d="m489.38 292.89-170.77-165.43-46.053 46.053-68.874-66.962-186.34 186.34h-17.338v15.673h512v-15.673zm-170.59-143.44 29.097 28.188h-29.185v15.673h45.364l102.79 99.579h-71.508l-111.55-108.45zm-184.92 49.086h85.57v-15.673h-69.896l54.299-54.299 63.321 61.59 105.7 102.74h-333.35z"/>
<path d="m88.816 135.84c36.01 0 65.306-29.297 65.306-65.306s-29.295-65.306-65.306-65.306-65.306 29.296-65.306 65.306 29.296 65.306 65.306 65.306zm0-114.94c27.367 0 49.633 22.266 49.633 49.633s-22.266 49.633-49.633 49.633-49.633-22.266-49.633-49.633 22.266-49.633 49.633-49.633z"/>
<path d="m276.9 57.47h44.536c-0.085 0.868-0.127 1.74-0.127 2.612 0 15.845 12.891 28.735 28.735 28.735h94.041c15.844 0 28.735-12.89 28.735-28.735s-12.891-28.735-28.735-28.735h-2.74c0.085-0.868 0.127-1.74 0.127-2.612 0-15.845-12.891-28.735-28.735-28.735h-135.84c-15.844 0-28.735 12.89-28.735 28.735s12.891 28.735 28.735 28.735zm0-41.795h135.84c7.202 0 13.061 5.859 13.061 13.061 0 2.167-0.624 4.321-1.907 6.585l-6.631 11.701h26.824c7.202 0 13.061 5.859 13.061 13.061s-5.859 13.061-13.061 13.061h-94.041c-7.202 0-13.061-5.859-13.061-13.061 0-2.167 0.624-4.321 1.907-6.585l6.631-11.701h-68.62c-7.202 0-13.061-5.859-13.061-13.061s5.858-13.061 13.061-13.061z"/>
<rect x="26.122" y="444.08" width="31.347" height="15.673"/>
<rect x="99.265" y="454.53" width="31.347" height="15.673"/>
<rect x="193.31" y="438.86" width="31.347" height="15.673"/>
<rect x="287.35" y="459.76" width="31.347" height="15.673"/>
<rect x="360.49" y="438.86" width="31.347" height="15.673"/>
<rect x="444.08" y="449.31" width="31.347" height="15.673"/>















</svg>
